# xmcd
#
# Track frame offsets: 
#        150
#        17660
#        29922
#        47119
#        65328
#        72956
#        87656
#        121510
#        135584
#
# Disc length: 2136 seconds
#
# Revision: 6
# Processed by: cddbd v1.5.2PL0 Copyright (c) Steve Scherf et al.
# Submitted via: ExactAudioCopyFreeDBPlugin 1.0
#
DISCID=7b085609
DTITLE=Marvin Gaye - What's Going On_2016
DYEAR=1971
DGENRE=R&B
TTITLE0=What's Going On
TTITLE1=What's Happening Brother
TTITLE2=Flyin High_In Friendly Sky
TTITLE3=Save the Children
TTITLE4=God Is Love
TTITLE5=Mercy Mercy Me
TTITLE6=Right On
TTITLE7=Wholy Holy
TTITLE8=Inner City Blues
EXTD=YEAR: 1971
EXTT0=
EXTT1=
EXTT2=
EXTT3=
EXTT4=
EXTT5=
EXTT6=
EXTT7=
EXTT8=
PLAYORDER=
